#!OML:ASF Y:\EmotionMaleHayes\Project 1\Capture day 1\Session 1\Male1.ASF
:FULLY-SPECIFIED
:DEGREES
1720
root -28.7431 16.9961 1.84021 534.647 77.402 535.725
lowerback 9.509 1.202 -2.69013
upperback 2.80189 1.44107 -0.0231019
thorax -2.48242 0.764381 1.32115
lowerneck -21.3284 -3.8111 -3.56674
upperneck 18.6801 -5.3415 5.48586
head 9.68591 -2.06281 1.7328
rclavicle -4.96993e-014 9.34288e-015
rhumerus -31.237 15.4442 -91.3331
rradius 40.9922
rwrist 0.891154
rhand -6.98976 -27.9666
rfingers 7.12502
rthumb 18.8807 -57.0702
lclavicle -4.96993e-014 9.34288e-015
lhumerus -24.298 -16.9809 86.5931
lradius 44.3262
lwrist -11.6119
lhand -8.80054 -30.3547
lfingers 7.12502
lthumb 17.1384 -1.09055
rfemur 2.22023 -8.59386 19.9987
rtibia 8.8203
rfoot -13.8545 -5.62265
rtoes 26.6056
lfemur -7.40383 19.2718 -15.4503
ltibia 50.3139
lfoot -6.42778 18.3281
ltoes -9.19215
1721
root -28.745 16.9757 1.81889 534.726 78.0942 535.933
lowerback 9.60942 1.29249 -2.47418
upperback 2.85097 1.58011 -0.0621091
thorax -2.4865 0.833681 1.14166
lowerneck -21.4646 -3.73362 -3.38068
upperneck 18.6683 -5.28744 5.47306
head 9.69806 -2.02351 1.70447
rclavicle 5.40446e-015 3.97569e-015
rhumerus -31.049 16.3575 -91.9341
rradius 41.2332
rwrist 0.208997
rhand -8.57529 -26.2468
rfingers 7.12502
rthumb 17.3552 -55.492
lclavicle 5.40446e-015 3.97569e-015
lhumerus -24.2782 -18.0986 87.1703
lradius 45.3154
lwrist -11.5125
lhand -8.86063 -30.5153
lfingers 7.12502
lthumb 17.0806 -1.24614
rfemur 2.14537 -8.87018 19.9681
rtibia 9.12422
rfoot -13.6327 -4.76549
rtoes 25.2312
lfemur -7.81295 19.2364 -15.1703
ltibia 51.5106
lfoot -6.83206 17.1152
ltoes -7.03948
1722
root -28.7397 16.9586 1.80462 536.41 78.3842 537.85
lowerback 9.68292 1.19591 -2.0719
upperback 2.96014 1.49684 0.0460922
thorax -2.40408 0.791672 1.03732
lowerneck -21.5858 -3.58944 -3.14281
upperneck 18.6147 -5.12942 5.33987
head 9.68249 -1.94841 1.64088
rclavicle -1.5002e-014 -5.86415e-015
rhumerus -30.7561 17.1543 -92.3317
rradius 41.5421
rwrist 0.563864
rhand -8.76588 -25.7351
rfingers 7.12502
rthumb 17.1718 -54.9964
lclavicle -1.5002e-014 -5.86415e-015
lhumerus -24.3052 -19.2656 87.8268
lradius 46.0882
lwrist -12.2217
lhand -10.383 -30.3902
lfingers 7.12502
lthumb 15.6148 -1.00049
rfemur 2.494 -8.16863 20.4421
rtibia 8.89837
rfoot -13.7949 -4.76092
rtoes 28.2979
lfemur -8.09481 18.95 -14.3749
ltibia 52.5523
lfoot -6.70669 15.7657
ltoes -7.86589
1723
root -28.732 16.9496 1.79122 537.324 78.7715 538.974
lowerback 9.76229 1.13033 -1.94592
upperback 3.04991 1.42777 0.159069
thorax -2.3524 0.757439 1.09103
lowerneck -21.6787 -3.43984 -2.9491
upperneck 18.5976 -4.94395 5.16982
head 9.67402 -1.86828 1.57615
rclavicle 3.58371e-014 -4.42296e-015
rhumerus -30.4757 17.9563 -92.6417
rradius 41.7441
rwrist 1.14542
rhand -8.1334 -26.0194
rfingers 7.12502
rthumb 17.7805 -55.2265
lclavicle 3.58371e-014 -4.42296e-015
lhumerus -24.2737 -20.2189 88.4343
lradius 46.8276
lwrist -11.9964
lhand -11.1991 -30.2759
lfingers 7.12502
lthumb 14.8287 -0.8265
rfemur 2.78088 -7.97168 20.7105
rtibia 8.72846
rfoot -13.5868 -4.78991
rtoes 27.1264
lfemur -8.19411 18.6095 -13.784
ltibia 53.1356
lfoot -6.90313 14.4697
ltoes -8.68253
1724
root -28.7261 16.9476 1.76957 537.3 79.3209 539.118
lowerback 9.88146 1.12434 -1.97047
upperback 3.06872 1.41788 0.224707
thorax -2.4003 0.753063 1.1718
lowerneck -21.6675 -3.29362 -2.80942
upperneck 18.633 -4.75528 5.02717
head 9.66823 -1.78762 1.53158
rclavicle 9.95787e-015 3.40419e-015
rhumerus -30.3321 18.8922 -93.0517
rradius 41.8146
rwrist 0.586891
rhand -8.91587 -25.515
rfingers 7.12502
rthumb 17.0274 -54.7887
lclavicle 9.95787e-015 3.40419e-015
lhumerus -24.3834 -20.9106 89.0466
lradius 47.694
lwrist -11.1077
lhand -9.687 -30.636
lfingers 7.12502
lthumb 16.285 -1.29986
rfemur 2.98508 -7.8085 20.6795
rtibia 8.79278
rfoot -13.6929 -4.36586
rtoes 27.4802
lfemur -8.18155 18.1311 -13.5634
ltibia 53.3696
lfoot -7.52908 13.068
ltoes -8.83703
1725
root -28.7217 16.9399 1.74963 539.882 79.9301 541.73
lowerback 9.75186 1.11209 -1.57469
upperback 3.06599 1.44489 0.393093
thorax -2.32825 0.764603 1.12283
lowerneck -21.639 -3.12101 -2.72239
upperneck 18.6261 -4.5469 5.03928
head 9.64996 -1.68381 1.55273
rclavicle -2.65253e-014 1.05604e-015
rhumerus -30.1376 19.7656 -93.4279
rradius 41.8539
rwrist -0.00993111
rhand -9.87021 -25.1017
rfingers 7.12502
rthumb 16.1086 -54.4522
lclavicle -2.65253e-014 1.05604e-015
lhumerus -24.5787 -21.6466 89.6913
lradius 48.3134
lwrist -11.369
lhand -10.4621 -30.7747
lfingers 7.12502
lthumb 15.5386 -1.37898
rfemur 2.91847 -7.87535 21.2583
rtibia 8.64024
rfoot -13.4738 -4.31977
rtoes 23.5826
lfemur -8.36155 17.7369 -12.8233
ltibia 53.5522
lfoot -7.90467 11.5636
ltoes -10.0157
1726
root -28.6999 16.943 1.73765 542.33 79.8287 544.563
lowerback 9.77011 0.885892 -1.22176
upperback 3.24977 1.19265 0.588056
thorax -2.13737 0.640041 1.15699
lowerneck -21.8494 -2.9744 -2.59588
upperneck 18.7731 -4.39005 5.04848
head 9.73031 -1.59479 1.55771
rclavicle -3.42702e-014 5.15598e-015
rhumerus -29.7996 20.3493 -93.6359
rradius 41.9516
rwrist 0.251978
rhand -9.91878 -25.4325
rfingers 7.12502
rthumb 16.0619 -54.7868
lclavicle -3.42702e-014 5.15598e-015
lhumerus -24.5734 -22.4891 90.2419
lradius 48.914
lwrist -11.2002
lhand -11.289 -30.5375
lfingers 7.12502
lthumb 14.7421 -1.08171
rfemur 3.80536 -7.70386 21.8083
rtibia 7.99516
rfoot -13.6213 -4.49527
rtoes 24.4317
lfemur -8.07196 16.7114 -11.9197
ltibia 53.4415
lfoot -8.4101 9.93997
ltoes -11.1225
1727
root -28.7 16.9418 1.71448 543.506 80.5659 545.805
lowerback 9.7829 0.965358 -1.14171
upperback 3.25549 1.30708 0.660683
thorax -2.14192 0.696741 1.17373
lowerneck -22.0253 -2.87232 -2.46902
upperneck 18.9701 -4.28298 4.99414
head 9.82291 -1.53598 1.53369
rclavicle 2.09531e-014 -4.31425e-015
rhumerus -29.5045 20.7353 -93.779
rradius 42.0171
rwrist 0.501337
rhand -9.83995 -25.632
rfingers 7.12502
rthumb 16.1378 -54.9801
lclavicle 2.09531e-014 -4.31425e-015
lhumerus -24.5834 -23.1349 90.7549
lradius 49.3802
lwrist -10.6449
lhand -11.6012 -31.0983
lfingers 7.12502
lthumb 14.4413 -1.6208
rfemur 3.84334 -7.5178 21.8623
rtibia 8.02052
rfoot -13.3705 -3.90284
rtoes 25.4521
lfemur -7.99963 16.3196 -11.5879
ltibia 53.1238
lfoot -9.21106 8.72119
ltoes -11.6349
1728
root -28.6997 16.9336 1.69541 543.309 80.9914 545.415
lowerback 9.57271 0.955087 -1.38133
upperback 3.13936 1.2669 0.700754
thorax -2.15103 0.673921 1.35692
lowerneck -21.9475 -2.74161 -2.43504
upperneck 19.0034 -4.12236 5.02867
head 9.81431 -1.45529 1.56514
rclavicle -7.11742e-015 6.33626e-016
rhumerus -29.1972 20.8607 -93.871
rradius 41.8563
rwrist 1.10819
rhand -9.34853 -25.721
rfingers 7.12502
rthumb 16.6109 -55.0302
lclavicle -7.11742e-015 6.33626e-016
lhumerus -24.7968 -23.6566 91.3471
lradius 49.8829
lwrist -10.182
lhand -12.0137 -31.4717
lfingers 7.12502
lthumb 14.0438 -1.96617
rfemur 3.66436 -7.18183 21.7415
rtibia 7.89508
rfoot -13.0242 -3.85257
rtoes 25.1295
lfemur -8.22698 15.5403 -11.6298
ltibia 52.6984
lfoot -10.2003 7.4044
ltoes -8.59139
1729
root -28.6917 16.9369 1.67064 540.497 81.3407 542.703
lowerback 9.58 0.930127 -1.8845
upperback 3.12886 1.18316 0.614243
thorax -2.17024 0.631637 1.5599
lowerneck -21.8671 -2.58107 -2.33588
upperneck 19.0601 -3.9365 5.03926
head 9.81053 -1.36031 1.5813
rclavicle -1.69122e-015 -1.12686e-014
rhumerus -28.983 20.8962 -94.0122
rradius 41.7542
rwrist 1.7689
rhand -8.92648 -26.1147
rfingers 7.12502
rthumb 17.0172 -55.3893
lclavicle -1.69122e-015 -1.12686e-014
lhumerus -25.0236 -24.2313 91.9071
lradius 50.3456
lwrist -9.91184
lhand -12.7669 -31.7715
lfingers 7.12502
lthumb 13.3179 -2.21702
rfemur 3.96663 -7.10933 21.0794
rtibia 7.69926
rfoot -12.831 -3.56508
rtoes 24.7478
lfemur -7.86899 14.4147 -12.0572
ltibia 51.9905
lfoot -11.3623 5.92077
ltoes -2.54156
